<svg xmlns="http://www.w3.org/2000/svg" viewBox="0 0 64 64" fill="none">
  <path
    fill="#2563EB"
    d="M18 10h8v10h21V10h8v21.5c-3.2-1.4-7-1.8-10.8-1.2L44 28.7H29.8L26 30.3V36h-8V10Z"
  />
  <path
    fill="#2563EB"
    d="M10 18h7v16.1l8.7-9.5h9.2l-10.8 11.6 11.7 14.2h-9.4L17 39v11.4h-7V18Z"
  />
  <path
    fill="#2563EB"
    d="M45 23.8c8.4 0 14 5.7 14 13.7 0 8.1-5.6 13.7-14 13.7-8.3 0-14-5.6-14-13.7 0-8 5.7-13.7 14-13.7Zm0 8c-4 0-6.5 2.2-6.5 5.7 0 3.6 2.5 5.8 6.5 5.8 4.1 0 6.5-2.2 6.5-5.8 0-3.5-2.4-5.7-6.5-5.7Z"
  />
  <path fill="#2563EB" d="M41 52h8v10h-8z" />
</svg>
