<svg xmlns="http://www.w3.org/2000/svg" viewBox="0 0 420 160" fill="none">
  <path
    fill="#2563EB"
    d="M118 8h22v18h124V8h22v50.4c-8.2-3.5-18-4.7-27.3-3.1l-.7.1V48l-14-6H166l-14 6v11l-.7-.2c-11.3-2.5-23.5-1.5-33.3 2.7V8Z"
  />
  <path
    fill="#2563EB"
    d="M28 28h18v39.2L77.9 32h37.7L76 73l40.4 47H78.2L46 81.5V120H28V28Z"
  />
  <path
    fill="#2563EB"
    d="M139.5 46h18v13.1C166 48.6 176.7 44 188.6 44c24.7 0 40.9 16.5 40.9 42.8V120h-18V88.2c0-16.9-9.2-27.3-24.4-27.3-17.6 0-29.6 12.2-29.6 30.8V120h-18V46Z"
  />
  <path
    fill="#2563EB"
    d="M306.4 43.5c34.5 0 58.4 22.9 58.4 56.2 0 33.1-23.9 56.3-58.4 56.3-34.6 0-58.5-23.2-58.5-56.3 0-33.3 23.9-56.2 58.5-56.2Zm0 18c-22.6 0-38 15.5-38 38.2 0 22.6 15.4 38.2 38 38.2 22.5 0 37.9-15.6 37.9-38.2 0-22.7-15.4-38.2-37.9-38.2Z"
  />
  <path fill="#2563EB" d="M291 129h19v26h-19z" />
  <path
    fill="#2563EB"
    d="M385 46h18V28h18v18h27v17h-27v57c0 11.2 5.6 16.5 17.5 16.5 3.1 0 6.1-.3 9.5-1.1V153c-4.9 1.4-9.3 2-15.2 2-20.7 0-30.3-9.6-30.3-30.7V63h-18V46Z"
  />
</svg>
